<svg id="Layer_1" data-name="Layer 1" xmlns="http://www.w3.org/2000/svg" viewBox="0 0 1095.61 943.92"><defs><style>.cls-1{font-size:53.25px;}.cls-1,.cls-14,.cls-20,.cls-27,.cls-36,.cls-4{font-family:Montserrat-Regular, Montserrat;}.cls-2{letter-spacing:0em;}.cls-3{letter-spacing:0em;}.cls-4{font-size:51.06px;}.cls-5{letter-spacing:-0.01em;}.cls-6{letter-spacing:-0.01em;}.cls-7{letter-spacing:-0.01em;}.cls-8{letter-spacing:0em;}.cls-9{letter-spacing:0em;}.cls-10{letter-spacing:-0.01em;}.cls-11{letter-spacing:0em;}.cls-12,.cls-24{fill:none;stroke:#000;stroke-miterlimit:10;}.cls-13{fill:#83bee8;}.cls-14{font-size:23.4px;}.cls-15{letter-spacing:0em;}.cls-16{letter-spacing:-0.01em;}.cls-17{letter-spacing:-0.02em;}.cls-18{letter-spacing:-0.01em;}.cls-19{letter-spacing:-0.02em;}.cls-20{font-size:16.38px;}.cls-21{letter-spacing:0em;}.cls-22{letter-spacing:-0.01em;}.cls-23{letter-spacing:0em;}.cls-24{stroke-width:0.25px;}.cls-25{letter-spacing:-0.02em;}.cls-26{letter-spacing:0em;}.cls-27,.cls-36{font-size:16.38px;}.cls-27,.cls-37{letter-spacing:0em;}.cls-28{letter-spacing:0em;}.cls-29{letter-spacing:0em;}.cls-30{letter-spacing:0em;}.cls-31{letter-spacing:-0.02em;}.cls-32{letter-spacing:0em;}.cls-33{letter-spacing:0em;}.cls-34{letter-spacing:-0.05em;}.cls-35{letter-spacing:-0.01em;}.cls-38{letter-spacing:0em;}.cls-39{letter-spacing:0em;}.cls-40{letter-spacing:0em;}.cls-41{letter-spacing:0em;}.cls-42{letter-spacing:-0.01em;}.cls-43{letter-spacing:0em;}.cls-44{letter-spacing:-0.01em;}.cls-45{letter-spacing:-0.02em;}.cls-46{letter-spacing:0em;}.cls-47{letter-spacing:-0.01em;}.cls-48{letter-spacing:-0.01em;}.cls-49{letter-spacing:-0.01em;}.cls-50{letter-spacing:-0.02em;}.cls-51{letter-spacing:0em;}.cls-52{letter-spacing:0.02em;}.cls-53{letter-spacing:-0.01em;}.cls-54{letter-spacing:0em;}</style></defs><title>cv</title><text class="cls-1" transform="translate(0 45.26)">Uddan<tspan class="cls-2" x="181.84" y="0">n</tspan><tspan class="cls-3" x="218" y="0">else </tspan></text><text class="cls-4" transform="translate(555.73 44.53)">E<tspan class="cls-5" x="34.16" y="0">r</tspan><tspan class="cls-6" x="54.22" y="0">h</tspan><tspan class="cls-7" x="88.28" y="0">v</tspan><tspan x="115.19" y="0">e</tspan><tspan class="cls-8" x="146.03" y="0">r</tspan><tspan x="166.3" y="0">ser</tspan><tspan class="cls-6" x="242.58" y="0">f</tspan><tspan class="cls-9" x="259.38" y="0">a</tspan><tspan class="cls-10" x="289.5" y="0">r</tspan><tspan x="309.57" y="0">i</tspan><tspan class="cls-11" x="323.3" y="0">n</tspan><tspan x="357.97" y="0">g</tspan></text><line class="cls-12" x1="112.59" y1="78.03" x2="112.59" y2="942.77"/><circle class="cls-13" cx="113.59" cy="82.51" r="18.89"/><circle class="cls-13" cx="113.59" cy="784.61" r="18.89"/><circle class="cls-13" cx="113.59" cy="222.93" r="18.89"/><circle class="cls-13" cx="113.59" cy="363.35" r="18.89"/><circle class="cls-13" cx="113.59" cy="503.77" r="18.89"/><circle class="cls-13" cx="113.59" cy="644.19" r="18.89"/><text class="cls-14" transform="translate(147.95 232.73)">B<tspan class="cls-15" x="17.65" y="0">a</tspan><tspan x="31.5" y="0">g</tspan><tspan class="cls-16" x="47.55" y="0">s</tspan><tspan class="cls-17" x="58.76" y="0">v</tspan><tspan x="71.07" y="0">æ</tspan><tspan class="cls-18" x="94.15" y="0">r</tspan><tspan x="103.23" y="0">d s</tspan><tspan class="cls-19" x="136.67" y="0">k</tspan><tspan x="150.25" y="0">ole </tspan></text><text class="cls-20" transform="translate(157.87 256.61)"><tspan class="cls-21">2</tspan><tspan x="9.24" y="0">0</tspan><tspan class="cls-22" x="20.08" y="0">0</tspan><tspan class="cls-23" x="30.77" y="0">3 - </tspan><tspan class="cls-21" x="54.85" y="0">2</tspan><tspan x="64.09" y="0">009</tspan></text><line class="cls-24" x1="152.93" y1="240.59" x2="152.93" y2="259.34"/><text class="cls-14" transform="translate(143.27 363.82)">E<tspan class="cls-15" x="15.66" y="0">n</tspan><tspan x="31.55" y="0">gelsbo</tspan><tspan class="cls-18" x="110.02" y="0">r</tspan><tspan x="119.1" y="0">gs</tspan><tspan class="cls-25" x="146.59" y="0">k</tspan><tspan class="cls-26" x="160.17" y="0">olen </tspan></text><text class="cls-27" transform="translate(152.11 385.11)">2<tspan class="cls-28" x="9.24" y="0">009 - </tspan><tspan x="55.75" y="0">2</tspan><tspan class="cls-29" x="64.99" y="0">0</tspan><tspan class="cls-30" x="75.8" y="0">13</tspan></text><line class="cls-24" x1="147.71" y1="370.83" x2="147.71" y2="387.54"/><text class="cls-14" transform="translate(143.27 511.26)"><tspan class="cls-31">V</tspan><tspan x="15.91" y="0">irum Gymnasium </tspan></text><text class="cls-27" transform="translate(152.11 532.55)">2<tspan class="cls-29" x="9.24" y="0">0</tspan><tspan class="cls-30" x="20.05" y="0">13 - </tspan><tspan class="cls-32" x="50.05" y="0">2</tspan><tspan class="cls-33" x="59.29" y="0">0</tspan><tspan class="cls-30" x="70.1" y="0">16</tspan></text><line class="cls-24" x1="147.71" y1="518.27" x2="147.71" y2="534.98"/><text class="cls-14" transform="translate(143.27 649.34)"><tspan class="cls-34">V</tspan><tspan x="15.05" y="0">alle</tspan><tspan class="cls-35" x="55.58" y="0">k</tspan><tspan x="69.46" y="0">ilde Højs</tspan><tspan class="cls-19" x="169.74" y="0">k</tspan><tspan x="183.31" y="0">ole </tspan></text><text class="cls-36" transform="translate(152.11 670.63)"><tspan class="cls-37">2</tspan><tspan class="cls-29" x="9.24" y="0">0</tspan><tspan class="cls-30" x="20.05" y="0">17 - </tspan><tspan class="cls-37" x="50.46" y="0">2</tspan><tspan class="cls-33" x="59.7" y="0">0</tspan><tspan x="70.51" y="0">17</tspan></text><line class="cls-24" x1="147.71" y1="656.35" x2="147.71" y2="673.06"/><circle class="cls-13" cx="113.59" cy="925.02" r="18.89"/><path d="M604.41,834l-3.34,3.4v4.3h-1.74V825.33h1.74v9.9l9.62-9.9h2l-7.1,7.42,7.59,9h-2.06Z" transform="translate(-453.39 -63.66)"/><path d="M626.34,835.56a6.05,6.05,0,0,1-6.25,6.27,6.85,6.85,0,0,1-3.13-.75l-1.52,2.29h-1.13l1.88-2.8a6.12,6.12,0,0,1-2.37-5,6.06,6.06,0,0,1,6.27-6.25,6.26,6.26,0,0,1,3.09.75l1.5-2.25h1.1L624,830.55A6.12,6.12,0,0,1,626.34,835.56Zm-9.29,3.7,5.29-7.94a4.63,4.63,0,0,0-6.83,4.24A4.82,4.82,0,0,0,617.05,839.26Zm7.61-3.7a4.85,4.85,0,0,0-1.55-3.73l-5.29,8a4.62,4.62,0,0,0,6.84-4.23Z" transform="translate(-453.39 -63.66)"/><path d="M642.21,835.56a6,6,0,0,1-6.13,6.27,5.32,5.32,0,0,1-4.75-2.55v2.43h-1.59V824.34h1.66v7.4a5.37,5.37,0,0,1,4.68-2.43A6,6,0,0,1,642.21,835.56Zm-1.66,0a4.59,4.59,0,1,0-4.59,4.8A4.52,4.52,0,0,0,640.55,835.56Z" transform="translate(-453.39 -63.66)"/><path d="M656.32,836.07H646a4.57,4.57,0,0,0,4.85,4.29,4.85,4.85,0,0,0,3.77-1.62l.93,1.08a6.51,6.51,0,0,1-11.21-4.26,5.93,5.93,0,0,1,6-6.25c3.46,0,6,2.55,6,6.25C656.35,835.7,656.32,835.88,656.32,836.07ZM646,834.83h8.73a4.37,4.37,0,0,0-8.73,0Z" transform="translate(-453.39 -63.66)"/><path d="M671.07,834.57v7.14H669.4v-7c0-2.6-1.35-3.93-3.69-3.93-2.65,0-4.31,1.63-4.31,4.44v6.46h-1.66V829.4h1.59v2.27a5.17,5.17,0,0,1,4.68-2.36C669,829.31,671.07,831,671.07,834.57Z" transform="translate(-453.39 -63.66)"/><path d="M686.91,834.57v7.14h-1.66v-7c0-2.6-1.36-3.93-3.7-3.93-2.65,0-4.31,1.63-4.31,4.44v6.46h-1.66V824.34h1.66v7.21a5.23,5.23,0,0,1,4.61-2.24C684.85,829.31,686.91,831,686.91,834.57Z" transform="translate(-453.39 -63.66)"/><path d="M700.72,834.08v7.63h-1.59v-1.92a4.62,4.62,0,0,1-4.24,2c-2.79,0-4.49-1.45-4.49-3.58,0-1.9,1.21-3.49,4.75-3.49h3.91V834c0-2.1-1.2-3.25-3.49-3.25a6.29,6.29,0,0,0-4.1,1.45l-.75-1.24a7.84,7.84,0,0,1,5-1.66C698.92,829.31,700.72,830.9,700.72,834.08ZM699.06,838v-2h-3.87c-2.38,0-3.16.94-3.16,2.2,0,1.43,1.15,2.32,3.12,2.32A3.94,3.94,0,0,0,699.06,838Z" transform="translate(-453.39 -63.66)"/><path d="M715.34,829.4l-5.47,12.31h-1.71L702.7,829.4h1.74l4.61,10.49,4.66-10.49Z" transform="translate(-453.39 -63.66)"/><path d="M729,834.57v7.14h-1.66v-7c0-2.6-1.36-3.93-3.7-3.93-2.64,0-4.31,1.63-4.31,4.44v6.46h-1.66V829.4h1.59v2.27a5.18,5.18,0,0,1,4.69-2.36C727,829.31,729,831,729,834.57Z" transform="translate(-453.39 -63.66)"/><path d="M731.82,840.31l.75-1.31a7.43,7.43,0,0,0,4.37,1.38c2.34,0,3.3-.8,3.3-2,0-3.21-8-.68-8-5.55,0-2,1.73-3.51,4.87-3.51a8.35,8.35,0,0,1,4.35,1.14l-.72,1.34a6.31,6.31,0,0,0-3.63-1.06c-2.22,0-3.21.87-3.21,2,0,3.33,8,.82,8,5.55,0,2.13-1.88,3.51-5.08,3.51A8.25,8.25,0,0,1,731.82,840.31Z" transform="translate(-453.39 -63.66)"/><path d="M610.92,868.3v1.5H599.33V853.41h11.24v1.5h-9.5v5.83h8.47v1.47h-8.47v6.09Z" transform="translate(-453.39 -63.66)"/><path d="M620.84,857.39V859c-.14,0-.28,0-.4,0-2.57,0-4.14,1.64-4.14,4.54v6.28h-1.66V857.48h1.59v2.42C617,858.26,618.57,857.39,620.84,857.39Z" transform="translate(-453.39 -63.66)"/><path d="M635.17,862.66v7.14H633.5v-7c0-2.6-1.35-3.93-3.69-3.93-2.65,0-4.31,1.64-4.31,4.45v6.46h-1.66V852.43h1.66v7.21a5.2,5.2,0,0,1,4.61-2.25C633.11,857.39,635.17,859.12,635.17,862.66Z" transform="translate(-453.39 -63.66)"/><path d="M649.79,857.48l-5.47,12.32h-1.71l-5.46-12.32h1.73L643.5,868l4.65-10.49Z" transform="translate(-453.39 -63.66)"/><path d="M662.5,864.16H652.2a4.56,4.56,0,0,0,4.85,4.28,4.83,4.83,0,0,0,3.76-1.62l.94,1.08a6.51,6.51,0,0,1-11.21-4.26,5.93,5.93,0,0,1,6-6.25c3.47,0,6,2.55,6,6.25C662.52,863.78,662.5,864,662.5,864.16Zm-10.3-1.25h8.73a4.37,4.37,0,0,0-8.73,0Z" transform="translate(-453.39 -63.66)"/><path d="M672.12,857.39V859c-.14,0-.28,0-.4,0-2.57,0-4.14,1.64-4.14,4.54v6.28h-1.66V857.48h1.59v2.42C668.28,858.26,669.85,857.39,672.12,857.39Z" transform="translate(-453.39 -63.66)"/><path d="M673.5,868.39l.75-1.31a7.43,7.43,0,0,0,4.37,1.38c2.34,0,3.3-.79,3.3-2,0-3.21-8-.68-8-5.55,0-2,1.73-3.51,4.87-3.51a8.36,8.36,0,0,1,4.35,1.15l-.72,1.33a6.32,6.32,0,0,0-3.63-1c-2.22,0-3.21.86-3.21,2,0,3.33,8,.82,8,5.55,0,2.13-1.87,3.51-5.07,3.51A8.18,8.18,0,0,1,673.5,868.39Z" transform="translate(-453.39 -63.66)"/><path d="M695.94,862.17v7.63h-1.59v-1.92a4.63,4.63,0,0,1-4.24,2c-2.78,0-4.49-1.45-4.49-3.58,0-1.89,1.22-3.49,4.75-3.49h3.91v-.74c0-2.11-1.19-3.26-3.49-3.26a6.24,6.24,0,0,0-4.09,1.45l-.75-1.24a7.82,7.82,0,0,1,5-1.66C694.14,857.39,695.94,859,695.94,862.17Zm-1.66,3.93v-2h-3.86c-2.39,0-3.16.94-3.16,2.21,0,1.42,1.15,2.31,3.11,2.31A3.94,3.94,0,0,0,694.28,866.1Z" transform="translate(-453.39 -63.66)"/><path d="M705,863.62l-2.9,2.67v3.51h-1.66V852.43h1.66V864.2l7.35-6.72h2.06l-5.27,5L712,869.8h-2Z" transform="translate(-453.39 -63.66)"/><path d="M723.58,862.17v7.63H722v-1.92a4.63,4.63,0,0,1-4.24,2c-2.78,0-4.49-1.45-4.49-3.58,0-1.89,1.22-3.49,4.75-3.49h3.91v-.74c0-2.11-1.19-3.26-3.49-3.26a6.24,6.24,0,0,0-4.09,1.45l-.75-1.24a7.82,7.82,0,0,1,5-1.66C721.78,857.39,723.58,859,723.58,862.17Zm-1.66,3.93v-2h-3.86c-2.39,0-3.16.94-3.16,2.21,0,1.42,1.14,2.31,3.11,2.31A4,4,0,0,0,721.92,866.1Z" transform="translate(-453.39 -63.66)"/><path d="M739.38,852.43V869.8h-1.59v-2.44a5.34,5.34,0,0,1-4.75,2.55,6.26,6.26,0,0,1,0-12.52,5.37,5.37,0,0,1,4.68,2.44v-7.4Zm-1.64,11.21a4.58,4.58,0,1,0-4.56,4.8A4.5,4.5,0,0,0,737.74,863.64Z" transform="translate(-453.39 -63.66)"/><path d="M754.73,864.16h-10.3a4.56,4.56,0,0,0,4.85,4.28,4.87,4.87,0,0,0,3.77-1.62l.93,1.08a6.51,6.51,0,0,1-11.21-4.26,5.93,5.93,0,0,1,6-6.25c3.46,0,6,2.55,6,6.25C754.75,863.78,754.73,864,754.73,864.16Zm-10.3-1.25h8.73a4.37,4.37,0,0,0-8.73,0Z" transform="translate(-453.39 -63.66)"/><path d="M778.46,862.66v7.14H776.8v-7c0-2.6-1.31-3.93-3.53-3.93-2.53,0-4.12,1.64-4.12,4.45v6.46h-1.67v-7c0-2.6-1.31-3.93-3.55-3.93-2.51,0-4.12,1.64-4.12,4.45v6.46h-1.66V857.48h1.59v2.25a5,5,0,0,1,4.51-2.34,4.43,4.43,0,0,1,4.38,2.6,5.37,5.37,0,0,1,4.87-2.6C776.5,857.39,778.46,859.12,778.46,862.66Z" transform="translate(-453.39 -63.66)"/><path d="M782.51,854.38a1.14,1.14,0,0,1,1.16-1.11,1.12,1.12,0,0,1,1.15,1.09,1.16,1.16,0,0,1-2.31,0Zm.35,3.7h1.59V869.8h-1.59Z" transform="translate(-453.39 -63.66)"/><text class="cls-27" transform="translate(152.11 827.42)">2<tspan class="cls-29" x="9.24" y="0">0</tspan><tspan class="cls-30" x="20.05" y="0">19 - nu</tspan></text><line class="cls-24" x1="147.71" y1="813.15" x2="147.71" y2="829.86"/><line class="cls-12" x1="709.36" y1="75.69" x2="709.36" y2="940.43"/><circle class="cls-13" cx="710.37" cy="80.17" r="18.89"/><circle class="cls-13" cx="710.37" cy="782.27" r="18.89"/><circle class="cls-13" cx="710.37" cy="220.59" r="18.89"/><circle class="cls-13" cx="710.37" cy="361.01" r="18.89"/><circle class="cls-13" cx="710.37" cy="501.43" r="18.89"/><circle class="cls-13" cx="710.37" cy="641.85" r="18.89"/><path d="M1197.91,288.55a8.6,8.6,0,1,1,8.61,8.33A8.25,8.25,0,0,1,1197.91,288.55Zm15.47,0a6.88,6.88,0,1,0-6.86,6.79A6.64,6.64,0,0,0,1213.38,288.55Z" transform="translate(-453.39 -63.66)"/><path d="M1231.12,290.58a6,6,0,0,1-6.13,6.28,5.38,5.38,0,0,1-4.68-2.44v6.86h-1.66V284.43h1.59v2.43a5.35,5.35,0,0,1,4.75-2.53A6,6,0,0,1,1231.12,290.58Zm-1.66,0a4.59,4.59,0,1,0-4.59,4.8A4.53,4.53,0,0,0,1229.46,290.58Z" transform="translate(-453.39 -63.66)"/><path d="M1244.51,284.43,1239,296.74h-1.71l-5.45-12.31h1.73l4.61,10.48,4.66-10.48Z" transform="translate(-453.39 -63.66)"/><path d="M1255.76,289.11v7.63h-1.59v-1.92a4.63,4.63,0,0,1-4.23,2c-2.79,0-4.5-1.45-4.5-3.58,0-1.9,1.22-3.49,4.75-3.49h3.91V289c0-2.11-1.19-3.25-3.49-3.25a6.26,6.26,0,0,0-4.09,1.45l-.75-1.24a7.79,7.79,0,0,1,5-1.67C1254,284.33,1255.76,285.93,1255.76,289.11ZM1254.1,293v-2h-3.86c-2.39,0-3.16.94-3.16,2.2,0,1.43,1.15,2.32,3.11,2.32A3.93,3.93,0,0,0,1254.1,293Z" transform="translate(-453.39 -63.66)"/><path d="M1258.57,295.34l.75-1.32a7.37,7.37,0,0,0,4.38,1.39c2.34,0,3.3-.8,3.3-2,0-3.2-8-.68-8-5.54,0-2,1.73-3.52,4.86-3.52a8.37,8.37,0,0,1,4.36,1.15l-.73,1.34a6.29,6.29,0,0,0-3.63-1.06c-2.22,0-3.2.87-3.2,2,0,3.32,8,.82,8,5.55,0,2.13-1.87,3.51-5.08,3.51A8.27,8.27,0,0,1,1258.57,295.34Z" transform="translate(-453.39 -63.66)"/><path d="M1276.29,290.56l-2.9,2.67v3.51h-1.67V279.37h1.67v11.78l7.35-6.72h2l-5.26,5,5.76,7.28h-2Z" transform="translate(-453.39 -63.66)"/><path d="M1296,291.1h-10.3a4.56,4.56,0,0,0,4.84,4.28,4.86,4.86,0,0,0,3.77-1.61l.94,1.07a6,6,0,0,1-4.75,2,6.1,6.1,0,0,1-6.46-6.28,5.93,5.93,0,0,1,6-6.25c3.47,0,6,2.56,6,6.25C1296,290.72,1296,290.91,1296,291.1Zm-10.3-1.24h8.73a4.37,4.37,0,0,0-8.73,0Z" transform="translate(-453.39 -63.66)"/><path d="M1305.64,284.33V286l-.4,0c-2.58,0-4.15,1.63-4.15,4.54v6.27h-1.66V284.43H1301v2.41C1301.8,285.2,1303.37,284.33,1305.64,284.33Z" transform="translate(-453.39 -63.66)"/><path d="M1314.57,280.54a1.2,1.2,0,0,1,1.22-1.17,1.19,1.19,0,0,1,1.22,1.15,1.22,1.22,0,0,1-2.44,0Zm.38,3.89h1.66v12.31H1315Z" transform="translate(-453.39 -63.66)"/><path d="M1213.05,308.44v16.38h-1.42l-10.54-13.29v13.29h-1.73V308.44h1.43l10.56,13.29V308.44Z" transform="translate(-453.39 -63.66)"/><path d="M1228.38,312.51l-6.15,13.79c-1,2.41-2.34,3.18-4.1,3.18a4.21,4.21,0,0,1-3-1.12l.78-1.24a3,3,0,0,0,2.24.93c1.1,0,1.85-.51,2.56-2.06l.53-1.19-5.5-12.29h1.74l4.63,10.46,4.63-10.46Z" transform="translate(-453.39 -63.66)"/><path d="M1243.2,318.67a6,6,0,0,1-6.14,6.27,5.34,5.34,0,0,1-4.75-2.55v2.43h-1.59V307.46h1.66v7.39a5.38,5.38,0,0,1,4.68-2.43A6,6,0,0,1,1243.2,318.67Zm-1.66,0a4.59,4.59,0,1,0-4.59,4.8A4.52,4.52,0,0,0,1241.54,318.67Z" transform="translate(-453.39 -63.66)"/><path d="M1252.79,312.42V314l-.4,0c-2.57,0-4.14,1.64-4.14,4.54v6.27h-1.66V312.51h1.59v2.41C1249,313.28,1250.52,312.42,1252.79,312.42Z" transform="translate(-453.39 -63.66)"/><path d="M1254.43,318.67a6.26,6.26,0,1,1,6.27,6.27A6.06,6.06,0,0,1,1254.43,318.67Zm10.84,0a4.59,4.59,0,1,0-4.57,4.8A4.5,4.5,0,0,0,1265.27,318.67Z" transform="translate(-453.39 -63.66)"/><path d="M1281.74,312.51v10.82c0,4.23-2.08,6.15-6.15,6.15a8.64,8.64,0,0,1-5.74-1.89l.84-1.27a7.35,7.35,0,0,0,4.85,1.69c3.11,0,4.54-1.43,4.54-4.47V322a5.55,5.55,0,0,1-4.8,2.39,6,6,0,1,1,0-11.94,5.55,5.55,0,0,1,4.87,2.46v-2.37Zm-1.61,5.85a4.67,4.67,0,1,0-4.68,4.52A4.4,4.4,0,0,0,1280.13,318.36Z" transform="translate(-453.39 -63.66)"/><path d="M1295.69,317.19v7.63h-1.59V322.9a4.62,4.62,0,0,1-4.24,2c-2.78,0-4.49-1.45-4.49-3.58,0-1.9,1.21-3.49,4.75-3.49H1294v-.75c0-2.1-1.2-3.25-3.49-3.25a6.29,6.29,0,0,0-4.1,1.45l-.75-1.24a7.84,7.84,0,0,1,5-1.66C1293.89,312.42,1295.69,314,1295.69,317.19Zm-1.66,3.94v-2h-3.86c-2.39,0-3.17.94-3.17,2.2,0,1.43,1.15,2.32,3.12,2.32A4,4,0,0,0,1294,321.13Zm-5.74-12.62a2.45,2.45,0,1,1,4.89,0,2.45,2.45,0,0,1-4.89,0Zm.87,0a1.51,1.51,0,0,0,1.57,1.57,1.53,1.53,0,0,0,1.59-1.57,1.59,1.59,0,0,0-1.59-1.64A1.55,1.55,0,0,0,1289.16,308.51Z" transform="translate(-453.39 -63.66)"/><path d="M1306.41,312.42V314l-.4,0c-2.58,0-4.14,1.64-4.14,4.54v6.27h-1.67V312.51h1.6v2.41C1302.57,313.28,1304.14,312.42,1306.41,312.42Z" transform="translate(-453.39 -63.66)"/><path d="M1320.52,307.46v17.36h-1.59v-2.43a5.34,5.34,0,0,1-4.75,2.55,6.26,6.26,0,0,1,0-12.52,5.38,5.38,0,0,1,4.68,2.43v-7.39Zm-1.64,11.21a4.58,4.58,0,1,0-4.56,4.8A4.5,4.5,0,0,0,1318.88,318.67Z" transform="translate(-453.39 -63.66)"/><path d="M1341.63,312.51l-5.48,12.31h-1.71L1329,312.51h1.73l4.61,10.49,4.66-10.49Z" transform="translate(-453.39 -63.66)"/><path d="M1355.06,312.51v12.31h-1.59v-2.24a4.92,4.92,0,0,1-4.42,2.36c-3.14,0-5.2-1.75-5.2-5.29v-7.14h1.66v7c0,2.62,1.36,3.95,3.7,3.95,2.58,0,4.19-1.66,4.19-4.47v-6.46Z" transform="translate(-453.39 -63.66)"/><path d="M1371.12,312.51v10.82c0,4.23-2.09,6.15-6.16,6.15a8.59,8.59,0,0,1-5.73-1.89l.84-1.27a7.34,7.34,0,0,0,4.84,1.69c3.12,0,4.55-1.43,4.55-4.47V322a5.56,5.56,0,0,1-4.8,2.39,6,6,0,1,1,0-11.94,5.55,5.55,0,0,1,4.87,2.46v-2.37Zm-1.62,5.85a4.67,4.67,0,1,0-4.68,4.52A4.39,4.39,0,0,0,1369.5,318.36Z" transform="translate(-453.39 -63.66)"/><path d="M1387.17,312.51v10.82c0,4.23-2.08,6.15-6.16,6.15a8.63,8.63,0,0,1-5.73-1.89l.84-1.27A7.35,7.35,0,0,0,1381,328c3.11,0,4.54-1.43,4.54-4.47V322a5.55,5.55,0,0,1-4.8,2.39,6,6,0,1,1,0-11.94,5.55,5.55,0,0,1,4.87,2.46v-2.37Zm-1.61,5.85a4.67,4.67,0,1,0-4.69,4.52A4.4,4.4,0,0,0,1385.56,318.36Z" transform="translate(-453.39 -63.66)"/><path d="M1402.55,319.18h-10.3a4.55,4.55,0,0,0,4.84,4.29,4.85,4.85,0,0,0,3.77-1.62l.94,1.08a6.51,6.51,0,0,1-11.21-4.26,5.93,5.93,0,0,1,6-6.25c3.47,0,6,2.55,6,6.25C1402.57,318.81,1402.55,319,1402.55,319.18Zm-10.3-1.24H1401a4.37,4.37,0,0,0-8.73,0Z" transform="translate(-453.39 -63.66)"/><path d="M1404.25,323.42l.75-1.31a7.46,7.46,0,0,0,4.38,1.38c2.34,0,3.3-.8,3.3-2,0-3.21-8-.68-8-5.55,0-2,1.73-3.51,4.87-3.51a8.35,8.35,0,0,1,4.35,1.14l-.73,1.34a6.27,6.27,0,0,0-3.62-1c-2.23,0-3.21.86-3.21,2,0,3.33,8,.82,8,5.55,0,2.13-1.87,3.51-5.08,3.51A8.2,8.2,0,0,1,1404.25,323.42Z" transform="translate(-453.39 -63.66)"/><path d="M1423.89,324.07a4,4,0,0,1-2.6.87,3.26,3.26,0,0,1-3.6-3.58v-7.44h-2.2v-1.41h2.2v-2.69h1.66v2.69h3.74v1.41h-3.74v7.35a2,2,0,0,0,2.13,2.24,2.72,2.72,0,0,0,1.82-.63Z" transform="translate(-453.39 -63.66)"/><path d="M1438,312.51v12.31h-1.59v-2.24a4.92,4.92,0,0,1-4.42,2.36c-3.14,0-5.2-1.75-5.2-5.29v-7.14h1.66v7c0,2.62,1.36,3.95,3.7,3.95,2.57,0,4.19-1.66,4.19-4.47v-6.46Z" transform="translate(-453.39 -63.66)"/><path d="M1453.38,319.18h-10.3a4.56,4.56,0,0,0,4.84,4.29,4.84,4.84,0,0,0,3.77-1.62l.94,1.08a6.51,6.51,0,0,1-11.21-4.26,5.93,5.93,0,0,1,6-6.25c3.47,0,6,2.55,6,6.25C1453.4,318.81,1453.38,319,1453.38,319.18Zm-10.3-1.24h8.73a4.37,4.37,0,0,0-8.73,0Z" transform="translate(-453.39 -63.66)"/><text class="cls-20" transform="translate(753.81 287.87)"><tspan class="cls-21">2</tspan><tspan class="cls-38" x="9.24" y="0">0</tspan><tspan class="cls-39" x="20.05" y="0">10 - </tspan><tspan class="cls-40" x="51.65" y="0">2</tspan><tspan class="cls-41" x="60.89" y="0">0</tspan><tspan x="71.7" y="0">10</tspan></text><line class="cls-24" x1="749.74" y1="274.67" x2="749.74" y2="290.13"/><text class="cls-14" transform="translate(744.73 366)"><tspan class="cls-42">K</tspan><tspan x="16.31" y="0">asse</tspan><tspan class="cls-43" x="67.14" y="0">m</tspan><tspan x="92.02" y="0">eda</tspan><tspan class="cls-44" x="135.83" y="0">r</tspan><tspan x="145.03" y="0">bejder i Ne</tspan><tspan class="cls-42" x="272.55" y="0">t</tspan><tspan class="cls-45" x="281.72" y="0">t</tspan><tspan class="cls-46" x="290.78" y="0">o </tspan></text><text class="cls-20" transform="translate(754.59 389.75)"><tspan class="cls-21">2</tspan><tspan class="cls-38" x="9.24" y="0">0</tspan><tspan class="cls-39" x="20.05" y="0">13 - </tspan><tspan class="cls-21" x="50.05" y="0">2</tspan><tspan class="cls-41" x="59.29" y="0">0</tspan><tspan x="70.1" y="0">15</tspan></text><line class="cls-24" x1="749.68" y1="373.82" x2="749.68" y2="392.46"/><text class="cls-14" transform="translate(744.73 504.24)"><tspan class="cls-47">L</tspan><tspan x="13.6" y="0">uk</tspan><tspan class="cls-19" x="43.41" y="0">k</tspan><tspan class="cls-48" x="56.99" y="0">e</tspan><tspan x="70.77" y="0">an</tspan><tspan class="cls-49" x="100.42" y="0">s</tspan><tspan class="cls-50" x="111.63" y="0">v</tspan><tspan x="123.94" y="0">a</tspan><tspan class="cls-47" x="137.75" y="0">r</tspan><tspan class="cls-51" x="146.95" y="0">lig i I</tspan><tspan class="cls-44" x="201.22" y="0">r</tspan><tspan x="210.41" y="0">ma </tspan></text><text class="cls-36" transform="translate(755.91 527.87)"><tspan class="cls-37">2</tspan><tspan class="cls-29" x="9.24" y="0">0</tspan><tspan x="20.05" y="0">15 - </tspan><tspan class="cls-37" x="50.08" y="0">2</tspan><tspan class="cls-29" x="59.32" y="0">0</tspan><tspan x="70.14" y="0">17</tspan></text><line class="cls-24" x1="751.51" y1="513.59" x2="751.51" y2="530.3"/><text class="cls-14" transform="translate(744.73 647)"><tspan class="cls-52">T</tspan><tspan x="13.95" y="0">je</tspan><tspan class="cls-15" x="34.5" y="0">n</tspan><tspan x="50.39" y="0">er </tspan><tspan class="cls-15" x="80.04" y="0">h</tspan><tspan x="95.93" y="0">os </tspan><tspan class="cls-18" x="128.18" y="0">r</tspan><tspan class="cls-51" x="137.26" y="0">estau</tspan><tspan class="cls-53" x="201.89" y="0">r</tspan><tspan x="211.07" y="0">ant Go</tspan><tspan class="cls-18" x="289.12" y="0">r</tspan><tspan class="cls-46" x="298.2" y="0">dion</tspan></text><text class="cls-36" transform="translate(753.57 668.28)"><tspan class="cls-37">2</tspan><tspan class="cls-29" x="9.24" y="0">0</tspan><tspan x="20.05" y="0">16 - </tspan><tspan class="cls-37" x="50.79" y="0">2</tspan><tspan class="cls-29" x="60.03" y="0">0</tspan><tspan class="cls-54" x="70.84" y="0">18</tspan></text><line class="cls-24" x1="749.17" y1="654.01" x2="749.17" y2="670.72"/><circle class="cls-13" cx="710.37" cy="922.68" r="18.89"/><path d="M1214.32,848.73l-3.74-5.26c-.43,0-.85.07-1.32.07h-4.4v5.19h-1.73V832.35h6.13c4.17,0,6.7,2.11,6.7,5.62a5.09,5.09,0,0,1-3.75,5.15l4,5.61Zm-.09-10.76c0-2.63-1.73-4.12-5-4.12h-4.36v8.21h4.36C1212.5,842.06,1214.23,840.54,1214.23,838Z" transform="translate(-453.39 -63.66)"/><path d="M1230.42,843.09h-10.3a4.57,4.57,0,0,0,4.85,4.29,4.85,4.85,0,0,0,3.77-1.62l.93,1.08a6.51,6.51,0,0,1-11.21-4.26,5.93,5.93,0,0,1,6-6.25c3.46,0,6,2.55,6,6.25C1230.45,842.72,1230.42,842.91,1230.42,843.09Zm-10.3-1.24h8.73a4.37,4.37,0,0,0-8.73,0Z" transform="translate(-453.39 -63.66)"/><path d="M1232.6,842.58a6.05,6.05,0,0,1,6.34-6.25,5.38,5.38,0,0,1,4.82,2.43l-1.24.84a4.17,4.17,0,0,0-3.58-1.82,4.8,4.8,0,0,0,0,9.6,4.16,4.16,0,0,0,3.58-1.81l1.24.85a5.42,5.42,0,0,1-4.82,2.43A6.07,6.07,0,0,1,1232.6,842.58Z" transform="translate(-453.39 -63.66)"/><path d="M1257.52,843.09h-10.3a4.57,4.57,0,0,0,4.85,4.29,4.85,4.85,0,0,0,3.77-1.62l.93,1.08a6.51,6.51,0,0,1-11.21-4.26,5.93,5.93,0,0,1,6-6.25c3.46,0,6,2.55,6,6.25C1257.55,842.72,1257.52,842.91,1257.52,843.09Zm-10.3-1.24H1256a4.37,4.37,0,0,0-8.73,0Z" transform="translate(-453.39 -63.66)"/><path d="M1273.41,842.58a6,6,0,0,1-6.13,6.27,5.37,5.37,0,0,1-4.68-2.43v6.85h-1.66V836.42h1.59v2.44a5.36,5.36,0,0,1,4.75-2.53A6,6,0,0,1,1273.41,842.58Zm-1.66,0a4.59,4.59,0,1,0-4.59,4.8A4.53,4.53,0,0,0,1271.75,842.58Z" transform="translate(-453.39 -63.66)"/><path d="M1283.29,848a4,4,0,0,1-2.6.87,3.26,3.26,0,0,1-3.61-3.58v-7.44h-2.2v-1.41h2.2v-2.69h1.67v2.69h3.74v1.41h-3.74v7.35a2,2,0,0,0,2.13,2.24,2.74,2.74,0,0,0,1.82-.63Z" transform="translate(-453.39 -63.66)"/><path d="M1285.93,832.54a1.2,1.2,0,0,1,1.22-1.17,1.18,1.18,0,0,1,1.22,1.14,1.22,1.22,0,0,1-2.44,0Zm.38,3.88H1288v12.31h-1.66Z" transform="translate(-453.39 -63.66)"/><path d="M1291.36,842.58a6.26,6.26,0,1,1,6.27,6.27A6.06,6.06,0,0,1,1291.36,842.58Zm10.84,0a4.59,4.59,0,1,0-4.57,4.8A4.5,4.5,0,0,0,1302.2,842.58Z" transform="translate(-453.39 -63.66)"/><path d="M1318.6,841.59v7.14h-1.66v-7c0-2.6-1.36-3.93-3.7-3.93-2.64,0-4.3,1.63-4.3,4.44v6.46h-1.67V836.42h1.6v2.27a5.17,5.17,0,0,1,4.68-2.36C1316.54,836.33,1318.6,838.06,1318.6,841.59Z" transform="translate(-453.39 -63.66)"/><path d="M1322.74,832.54a1.2,1.2,0,0,1,1.22-1.17,1.18,1.18,0,0,1,1.22,1.14,1.22,1.22,0,0,1-2.44,0Zm.38,3.88h1.66v12.31h-1.66Z" transform="translate(-453.39 -63.66)"/><path d="M1327.7,847.33l.75-1.31a7.48,7.48,0,0,0,4.38,1.38c2.34,0,3.3-.8,3.3-2,0-3.21-8-.68-8-5.55,0-2,1.73-3.51,4.87-3.51a8.35,8.35,0,0,1,4.35,1.14l-.72,1.34a6.32,6.32,0,0,0-3.63-1c-2.23,0-3.21.86-3.21,2,0,3.33,8,.82,8,5.55,0,2.13-1.87,3.51-5.08,3.51A8.29,8.29,0,0,1,1327.7,847.33Z" transform="translate(-453.39 -63.66)"/><path d="M1347.34,848a3.93,3.93,0,0,1-2.6.87,3.26,3.26,0,0,1-3.6-3.58v-7.44h-2.2v-1.41h2.2v-2.69h1.66v2.69h3.74v1.41h-3.74v7.35a2,2,0,0,0,2.13,2.24,2.77,2.77,0,0,0,1.83-.63Z" transform="translate(-453.39 -63.66)"/><path d="M1367.82,841.59v7.14h-1.66v-7c0-2.6-1.36-3.93-3.7-3.93-2.65,0-4.31,1.63-4.31,4.44v6.46h-1.66V831.37h1.66v7.2a5.21,5.21,0,0,1,4.61-2.24C1365.76,836.33,1367.82,838.06,1367.82,841.59Z" transform="translate(-453.39 -63.66)"/><path d="M1371.14,842.58a6.26,6.26,0,1,1,6.27,6.27A6.06,6.06,0,0,1,1371.14,842.58Zm10.84,0a4.58,4.58,0,1,0-4.57,4.8A4.49,4.49,0,0,0,1382,842.58Z" transform="translate(-453.39 -63.66)"/><path d="M1385.35,847.33l.74-1.31a7.48,7.48,0,0,0,4.38,1.38c2.34,0,3.3-.8,3.3-2,0-3.21-8-.68-8-5.55,0-2,1.73-3.51,4.87-3.51a8.35,8.35,0,0,1,4.35,1.14l-.72,1.34a6.32,6.32,0,0,0-3.63-1c-2.22,0-3.21.86-3.21,2,0,3.33,8,.82,8,5.55,0,2.13-1.87,3.51-5.07,3.51A8.25,8.25,0,0,1,1385.35,847.33Z" transform="translate(-453.39 -63.66)"/><path d="M1214.72,875.32v1.5h-11.59V860.43h11.24v1.5h-9.51v5.83h8.48v1.47h-8.48v6.09Z" transform="translate(-453.39 -63.66)"/><path d="M1223,870.64l-2.9,2.67v3.51h-1.66V859.45h1.66v11.77l7.35-6.72h2.06l-5.27,5,5.76,7.28h-2Z" transform="translate(-453.39 -63.66)"/><path d="M1230.42,875.41l.75-1.31a7.44,7.44,0,0,0,4.38,1.38c2.34,0,3.3-.79,3.3-2,0-3.21-8-.68-8-5.55,0-2,1.73-3.51,4.86-3.51a8.37,8.37,0,0,1,4.36,1.15l-.73,1.33a6.28,6.28,0,0,0-3.63-1c-2.22,0-3.2.87-3.2,2,0,3.32,8,.81,8,5.54,0,2.13-1.87,3.51-5.08,3.51A8.2,8.2,0,0,1,1230.42,875.41Z" transform="translate(-453.39 -63.66)"/><path d="M1256.05,870.66a6,6,0,0,1-6.13,6.27,5.39,5.39,0,0,1-4.69-2.43v6.86h-1.66V864.5h1.59v2.44a5.38,5.38,0,0,1,4.76-2.53A6,6,0,0,1,1256.05,870.66Zm-1.66,0a4.59,4.59,0,1,0-4.59,4.8A4.54,4.54,0,0,0,1254.39,870.66Z" transform="translate(-453.39 -63.66)"/><path d="M1258.2,870.66a6.26,6.26,0,1,1,6.27,6.27A6.06,6.06,0,0,1,1258.2,870.66Zm10.84,0a4.59,4.59,0,1,0-4.57,4.8A4.5,4.5,0,0,0,1269,870.66Z" transform="translate(-453.39 -63.66)"/><path d="M1285.44,869.68v7.14h-1.66v-7c0-2.6-1.36-3.93-3.7-3.93-2.64,0-4.3,1.64-4.3,4.45v6.46h-1.67V864.5h1.6v2.28a5.16,5.16,0,0,1,4.68-2.37C1283.38,864.41,1285.44,866.14,1285.44,869.68Z" transform="translate(-453.39 -63.66)"/><path d="M1300.72,871.18h-10.3a4.56,4.56,0,0,0,4.85,4.28,4.85,4.85,0,0,0,3.77-1.62l.94,1.08a6.52,6.52,0,0,1-11.22-4.26,5.93,5.93,0,0,1,6-6.25c3.46,0,6,2.55,6,6.25C1300.75,870.8,1300.72,871,1300.72,871.18Zm-10.3-1.24h8.74a4.38,4.38,0,0,0-8.74,0Z" transform="translate(-453.39 -63.66)"/><path d="M1315.47,869.68v7.14h-1.66v-7c0-2.6-1.36-3.93-3.7-3.93-2.65,0-4.31,1.64-4.31,4.45v6.46h-1.66V864.5h1.59v2.28a5.17,5.17,0,0,1,4.68-2.37C1313.41,864.41,1315.47,866.14,1315.47,869.68Z" transform="translate(-453.39 -63.66)"/><path d="M1326.47,876.07a4,4,0,0,1-2.6.86,3.26,3.26,0,0,1-3.61-3.58v-7.44h-2.2V864.5h2.2v-2.69h1.66v2.69h3.75v1.41h-3.75v7.35a2,2,0,0,0,2.13,2.25,2.72,2.72,0,0,0,1.83-.64Z" transform="translate(-453.39 -63.66)"/><text class="cls-36" transform="translate(755.91 834.45)"><tspan class="cls-37">2</tspan><tspan class="cls-29" x="9.24" y="0">0</tspan><tspan x="20.05" y="0">17 - nu</tspan></text><line class="cls-24" x1="751.51" y1="820.17" x2="751.51" y2="836.88"/></svg>
